<svg xmlns="http://www.w3.org/2000/svg" viewBox="0 0 512 512">
  <rect width="512" height="512" rx="96" fill="#e63946"/>
  <g transform="translate(96 96)" fill="#fff">
    <path d="M160 0c-44 0-80 24-80 64v8H40c-22 0-40 18-40 40v32c0 18 14 32 32 32h12l16 132c2 18 18 32 36 32h128c18 0 34-14 36-32l16-132h12c18 0 32-14 32-32v-32c0-22-18-40-40-40h-40v-8C240 24 204 0 160 0zm0 28c30 0 52 14 52 36v8h-104v-8c0-22 22-36 52-36zM40 100h240c4 0 8 4 8 8v20H32v-20c0-4 4-8 8-8z"/>
    <circle cx="160" cy="200" r="14"/>
    <circle cx="100" cy="220" r="10"/>
    <circle cx="220" cy="220" r="10"/>
  </g>
</svg>
